<mxfile host="app.diagrams.net" modified="2023-06-12T08:08:07.926Z" agent="Mozilla/5.0 (Macintosh; Intel Mac OS X 10_15_7) AppleWebKit/537.36 (KHTML, like Gecko) Chrome/114.0.0.0 Safari/537.36" etag="1Z-X9AS7OSJYZOJ9ON8N" version="21.3.7" type="device">
  <diagram name="Page-1" id="vaccdmVG3oXTE-TIsHp4">
    <mxGraphModel dx="1621" dy="869" grid="1" gridSize="10" guides="1" tooltips="1" connect="1" arrows="1" fold="1" page="1" pageScale="1" pageWidth="850" pageHeight="1100" math="0" shadow="0">
      <root>
        <mxCell id="0" />
        <mxCell id="1" parent="0" />
      </root>
    </mxGraphModel>
  </diagram>
</mxfile>
